# xmcd
#
# Track frame offsets: 
#        150
#        18840
#        31511
#        49638
#        72401
#        90373
#        108743
#        124521
#        148435
#        166678
#        180936
#
# Disc length: 2588 seconds
#
# Revision: 0
# Processed by: cddbd v1.5.2PL0 Copyright (c) Steve Scherf et al.
# Submitted via: ExactAudioCopy v0.99pb3
#
DISCID=820a1a0b
DTITLE=Mississippi Mudsharks - Voodoo Doll
DYEAR=2008
DGENRE=Blues
TTITLE0=Voodoo Doll
TTITLE1=Cholula Got Me
TTITLE2=Preacher
TTITLE3=Evil Eye
TTITLE4=Runaway Soul
TTITLE5=Pistolero
TTITLE6=Hammerhead
TTITLE7=Take My Baby Home
TTITLE8=The Gravestone Lied
TTITLE9=Shadow
TTITLE10=Son Of A Bitch
EXTD=
EXTT0=
EXTT1=
EXTT2=
EXTT3=
EXTT4=
EXTT5=
EXTT6=
EXTT7=
EXTT8=
EXTT9=
EXTT10=
PLAYORDER=
